#!OML:ASF H:\Terrain\Patient Classification 1\Terrain2\Thursday\justin.ASF
:FULLY-SPECIFIED
:DEGREES
3145
root 7.20024 17.6217 21.7563 350.286 51.4056 347.444
lowerback 8.28034 0.778245 7.83932
upperback 3.75928 1.81784 4.59734
thorax -0.639797 1.01046 0.216605
lowerneck -14.1692 1.01888 -7.48153
upperneck 39.7838 6.16171 -1.95668
head 16.7037 1.51996 1.66903
rclavicle -4.31363e-014 2.62396e-014
rhumerus -30.9049 -5.23054 -77.4501
rradius 28.2684
rwrist -9.03536
rhand -21.5006 16.822
rfingers 7.12502
rthumb 4.89099 -13.1016
lclavicle -4.31363e-014 2.62396e-014
lhumerus -35.9999 6.17282 82.7634
lradius 38.8336
lwrist 9.31201
lhand -22.3834 21.0457
lfingers 7.12502
lthumb 4.0385 50.9872
rfemur -9.53728 2.48544 24.835
rtibia 32.6575
rfoot -20.4501 8.09118
rtoes 6.8433
lfemur -15.3051 -13.6845 -6.95121
ltibia 36.1264
lfoot -9.6995 -33.6154
ltoes 22.9263
3146
root 7.17587 17.6367 21.791 350.37 52.6102 347.483
lowerback 8.11658 0.745705 7.56599
upperback 3.7514 1.74076 4.67809
thorax -0.5739 0.971641 0.460706
lowerneck -14.0661 1.05014 -7.55584
upperneck 39.7331 6.20162 -1.8697
head 16.6412 1.55036 1.72605
rclavicle -1.26228e-013 4.69132e-014
rhumerus -30.7779 -4.95704 -77.4155
rradius 28.2827
rwrist -9.50556
rhand -22.1871 16.8205
rfingers 7.12502
rthumb 4.22812 -13.1173
lclavicle -1.26228e-013 4.69132e-014
lhumerus -36.2758 6.10261 82.9417
lradius 38.5824
lwrist 9.11737
lhand -21.9957 21.1697
lfingers 7.12502
lthumb 4.41296 51.1037
rfemur -9.30927 2.19428 24.8058
rtibia 32.1205
rfoot -20.2173 7.03618
rtoes 6.46988
lfemur -16.1025 -13.4406 -7.24773
ltibia 36.6343
lfoot -2.66167 -32.54
ltoes 34.2374
3147
root 7.14381 17.6595 21.8344 349.719 53.7196 346.976
lowerback 8.3008 0.699019 7.56421
upperback 3.78237 1.70554 4.7684
thorax -0.648282 0.954827 0.555053
lowerneck -13.9032 1.04898 -7.48489
upperneck 39.658 6.13117 -1.77892
head 16.5564 1.55898 1.73812
rclavicle 1.39149e-014 -2.3059e-014
rhumerus -30.657 -4.89922 -77.4447
rradius 28.1647
rwrist -9.71822
rhand -22.2566 16.5969
rfingers 7.12502
rthumb 4.16097 -13.3422
lclavicle 1.39149e-014 -2.3059e-014
lhumerus -36.5771 6.0481 82.9154
lradius 38.3276
lwrist 8.80895
lhand -21.6267 21.5564
lfingers 7.12502
lthumb 4.76925 51.4827
rfemur -8.70597 2.31767 25.2548
rtibia 31.4653
rfoot -19.9523 5.74654
rtoes 6.71894
lfemur -16.4568 -13.1788 -7.15372
ltibia 37.1568
lfoot -5.64634 -31.5233
ltoes 27.7817
3148
root 7.10358 17.6671 21.9015 346.377 54.3493 343.773
lowerback 8.8834 0.64045 8.82424
upperback 3.91394 1.82663 5.32989
thorax -0.80005 1.03441 0.426673
lowerneck -13.6266 0.972004 -7.21634
upperneck 39.6234 5.90316 -1.74684
head 16.4782 1.52584 1.66181
rclavicle 9.14409e-014 -1.43125e-014
rhumerus -30.6931 -5.26202 -77.3406
rradius 28.1601
rwrist -9.46216
rhand -21.7699 15.7232
rfingers 7.12502
rthumb 4.63095 -14.2062
lclavicle 9.14409e-014 -1.43125e-014
lhumerus -36.8643 5.54799 82.9651
lradius 38.0712
lwrist 8.67631
lhand -21.6023 22.305
lfingers 7.12502
lthumb 4.79281 52.2308
rfemur -7.60172 3.15849 27.7003
rtibia 31.0075
rfoot -19.8846 3.61828
rtoes 5.94957
lfemur -16.0969 -12.4031 -5.23405
ltibia 37.4765
lfoot -8.28718 -30.5236
ltoes 21.7719
3149
root 7.10354 17.6755 21.8962 346.29 56.3739 344.027
lowerback 8.9056 0.404339 8.97319
upperback 3.87304 1.52723 5.07162
thorax -0.859901 0.885736 0.101484
lowerneck -13.3383 0.816048 -7.02531
upperneck 39.6034 5.5734 -1.68247
head 16.4051 1.44444 1.59695
rclavicle 5.18828e-014 -3.33958e-014
rhumerus -30.6771 -6.10282 -76.9578
rradius 27.9821
rwrist -9.09918
rhand -21.5011 15.3295
rfingers 7.12502
rthumb 4.89049 -14.594
lclavicle 5.18828e-014 -3.33958e-014
lhumerus -36.9105 4.86329 83.161
lradius 37.506
lwrist 8.56717
lhand -21.6338 22.5596
lfingers 7.12502
lthumb 4.76236 52.4861
rfemur -7.20967 1.02486 26.8939
rtibia 30.8501
rfoot -20.2775 3.83553
rtoes 6.3706
lfemur -16.2466 -12.4449 -6.24202
ltibia 37.5661
lfoot -9.27431 -28.884
ltoes 17.8489
3150
root 7.09643 17.6661 21.9249 347.642 58.5145 346.136
lowerback 8.88744 0.295496 7.63608
upperback 3.9616 1.24689 4.68222
thorax -0.802573 0.735006 0.458441
lowerneck -13.1793 0.695006 -6.90908
upperneck 39.669 5.30833 -1.52497
head 16.4008 1.38499 1.60172
rclavicle -4.35338e-014 -3.81667e-014
rhumerus -30.5334 -6.59882 -76.6937
rradius 27.7072
rwrist -9.15711
rhand -21.5565 15.6099
rfingers 7.12502
rthumb 4.837 -14.3149
lclavicle -4.35338e-014 -3.81667e-014
lhumerus -36.7423 5.14319 83.0396
lradius 36.4157
lwrist 7.59602
lhand -21.1139 21.7066
lfingers 7.12502
lthumb 5.26439 51.6212
rfemur -6.6997 -0.810655 25.1184
rtibia 30.7867
rfoot -20.6355 3.94966
rtoes 7.37652
lfemur -16.0826 -12.5282 -8.32382
ltibia 37.633
lfoot -11.4392 -27.1418
ltoes 14.4216
3151
root 7.08852 17.6721 21.9648 349.787 60.5447 349.008
lowerback 8.83485 0.137969 5.76544
upperback 4.06779 0.857484 4.3337
thorax -0.712543 0.522307 1.16981
lowerneck -13.1683 0.687332 -6.9331
upperneck 39.7165 5.30757 -1.46544
head 16.4199 1.39557 1.63487
rclavicle 5.68524e-014 -1.51076e-014
rhumerus -30.3933 -6.24246 -76.662
rradius 27.8035
rwrist -9.63694
rhand -21.5235 15.6453
rfingers 7.12502
rthumb 4.86886 -14.2787
lclavicle 5.68524e-014 -1.51076e-014
lhumerus -36.7893 5.87264 82.868
lradius 35.679
lwrist 6.56827
lhand -20.4213 20.6893
lfingers 7.12502
lthumb 5.93306 50.5863
rfemur -6.27911 -2.28988 23.1489
rtibia 30.842
rfoot -20.9192 3.50806
rtoes 5.4575
lfemur -15.8767 -12.1644 -10.6397
ltibia 37.657
lfoot -13.123 -25.2572
ltoes 9.86563
3152
root 7.06855 17.6855 21.9896 349.089 61.6622 348.132
lowerback 8.79832 0.0362207 6.05636
upperback 3.99942 0.75457 4.44274
thorax -0.762312 0.473949 1.13062
lowerneck -13.2584 0.671787 -6.96615
upperneck 39.7835 5.31823 -1.42821
head 16.4759 1.40262 1.66425
rclavicle -2.0276e-014 -3.81667e-014
rhumerus -30.3507 -6.06027 -76.6721
rradius 28.0081
rwrist -9.95247
rhand -21.7138 15.4255
rfingers 7.12502
rthumb 4.68514 -14.5027
lclavicle -2.0276e-014 -3.81667e-014
lhumerus -36.9316 5.91523 82.8394
lradius 35.1857
lwrist 6.16301
lhand -20.1633 20.1115
lfingers 7.12502
lthumb 6.18218 50.0013
rfemur -6.26971 -2.59766 23.6236
rtibia 30.5741
rfoot -20.7435 2.19638
rtoes 2.04532
lfemur -16.2614 -11.0002 -10.5317
ltibia 38.0262
lfoot -15.7372 -22.9818
ltoes 2.76604
3153
root 7.04538 17.7055 22.018 346.301 61.9563 344.862
lowerback 8.78129 0.165991 7.54563
upperback 3.91452 1.07321 4.78719
thorax -0.806142 0.650757 0.634172
lowerneck -13.3058 0.550617 -6.87416
upperneck 39.9341 5.08761 -1.26554
head 16.5683 1.3458 1.68753
rclavicle -4.27387e-014 8.74653e-015
rhumerus -30.471 -6.425 -76.6382
rradius 28.1967
rwrist -10.0453
rhand -21.8758 15.1906
rfingers 7.12502
rthumb 4.52869 -14.741
lclavicle -4.27387e-014 8.74653e-015
lhumerus -37.0158 5.63307 82.7408
lradius 34.5792
lwrist 5.83871
lhand -19.9165 19.7185
lfingers 7.12502
lthumb 6.42043 49.6012
rfemur -5.99583 -1.40148 25.5173
rtibia 30.2801
rfoot -20.577 1.14556
rtoes 4.74995
lfemur -16.5712 -9.38611 -9.03209
ltibia 38.4647
lfoot -17.4066 -20.4874
ltoes -1.28768
